<?xml version="1.0" ?><svg enable-background="new 0 0 224 229.5" id="disqus" version="1.1" viewBox="0 0 224 229.5" xml:space="preserve" xmlns="http://www.w3.org/2000/svg" xmlns:xlink="http://www.w3.org/1999/xlink"><g><path d="M20,13.5h-4v-4c0-2.2109-1.791-4-4-4s-4,1.7891-4,4v4H4c-2.209,0-4,1.7891-4,4s1.791,4,4,4h4v4   c0,2.2109,1.791,4,4,4s4-1.7891,4-4v-4h4c2.209,0,4-1.7891,4-4S22.209,13.5,20,13.5z" fill="#FAE6F5"/><path d="M60,13.5h-4v-4c0-2.2109-1.791-4-4-4s-4,1.7891-4,4v4h-4c-2.209,0-4,1.7891-4,4s1.791,4,4,4h4v4   c0,2.2109,1.791,4,4,4s4-1.7891,4-4v-4h4c2.209,0,4-1.7891,4-4S62.209,13.5,60,13.5z" fill="#FAE6F5"/><path d="M100,13.5h-4v-4c0-2.2109-1.791-4-4-4s-4,1.7891-4,4v4h-4c-2.209,0-4,1.7891-4,4s1.791,4,4,4h4v4   c0,2.2109,1.791,4,4,4s4-1.7891,4-4v-4h4c2.209,0,4-1.7891,4-4S102.209,13.5,100,13.5z" fill="#FAE6F5"/><path d="M140,13.5h-4v-4c0-2.2109-1.791-4-4-4s-4,1.7891-4,4v4h-4c-2.209,0-4,1.7891-4,4s1.791,4,4,4h4v4   c0,2.2109,1.791,4,4,4s4-1.7891,4-4v-4h4c2.209,0,4-1.7891,4-4S142.209,13.5,140,13.5z" fill="#FAE6F5"/><path d="M180,13.5h-4v-4c0-2.2109-1.791-4-4-4s-4,1.7891-4,4v4h-4c-2.209,0-4,1.7891-4,4s1.791,4,4,4h4v4   c0,2.2109,1.791,4,4,4s4-1.7891,4-4v-4h4c2.209,0,4-1.7891,4-4S182.209,13.5,180,13.5z" fill="#FAE6F5"/><path d="M204,21.5h4v4c0,2.2109,1.791,4,4,4s4-1.7891,4-4v-4h4c2.209,0,4-1.7891,4-4s-1.791-4-4-4h-4v-4   c0-2.2109-1.791-4-4-4s-4,1.7891-4,4v4h-4c-2.209,0-4,1.7891-4,4S201.791,21.5,204,21.5z" fill="#FAE6F5"/><path d="M20,53.5h-4v-4c0-2.2109-1.791-4-4-4s-4,1.7891-4,4v4H4c-2.209,0-4,1.7891-4,4s1.791,4,4,4h4v4   c0,2.2109,1.791,4,4,4s4-1.7891,4-4v-4h4c2.209,0,4-1.7891,4-4S22.209,53.5,20,53.5z" fill="#FAE6F5"/><path d="M60,53.5h-4v-4c0-2.2109-1.791-4-4-4s-4,1.7891-4,4v4h-4c-2.209,0-4,1.7891-4,4s1.791,4,4,4h4v4   c0,2.2109,1.791,4,4,4s4-1.7891,4-4v-4h4c2.209,0,4-1.7891,4-4S62.209,53.5,60,53.5z" fill="#FAE6F5"/><path d="M100,53.5h-4v-4c0-2.2109-1.791-4-4-4s-4,1.7891-4,4v4h-4c-2.209,0-4,1.7891-4,4s1.791,4,4,4h4v4   c0,2.2109,1.791,4,4,4s4-1.7891,4-4v-4h4c2.209,0,4-1.7891,4-4S102.209,53.5,100,53.5z" fill="#FAE6F5"/><path d="M140,53.5h-4v-4c0-2.2109-1.791-4-4-4s-4,1.7891-4,4v4h-4c-2.209,0-4,1.7891-4,4s1.791,4,4,4h4v4   c0,2.2109,1.791,4,4,4s4-1.7891,4-4v-4h4c2.209,0,4-1.7891,4-4S142.209,53.5,140,53.5z" fill="#FAE6F5"/><path d="M180,53.5h-4v-4c0-2.2109-1.791-4-4-4s-4,1.7891-4,4v4h-4c-2.209,0-4,1.7891-4,4s1.791,4,4,4h4v4   c0,2.2109,1.791,4,4,4s4-1.7891,4-4v-4h4c2.209,0,4-1.7891,4-4S182.209,53.5,180,53.5z" fill="#FAE6F5"/><path d="M220,53.5h-4v-4c0-2.2109-1.791-4-4-4s-4,1.7891-4,4v4h-4c-2.209,0-4,1.7891-4,4s1.791,4,4,4h4v4   c0,2.2109,1.791,4,4,4s4-1.7891,4-4v-4h4c2.209,0,4-1.7891,4-4S222.209,53.5,220,53.5z" fill="#FAE6F5"/><path d="M20,93.5h-4v-4c0-2.2109-1.791-4-4-4s-4,1.7891-4,4v4H4c-2.209,0-4,1.7891-4,4s1.791,4,4,4h4v4   c0,2.2109,1.791,4,4,4s4-1.7891,4-4v-4h4c2.209,0,4-1.7891,4-4S22.209,93.5,20,93.5z" fill="#FAE6F5"/><path d="M60,93.5h-4v-4c0-2.2109-1.791-4-4-4s-4,1.7891-4,4v4h-4c-2.209,0-4,1.7891-4,4s1.791,4,4,4h4v4   c0,2.2109,1.791,4,4,4s4-1.7891,4-4v-4h4c2.209,0,4-1.7891,4-4S62.209,93.5,60,93.5z" fill="#FAE6F5"/><path d="M100,93.5h-4v-4c0-2.2109-1.791-4-4-4s-4,1.7891-4,4v4h-4c-2.209,0-4,1.7891-4,4s1.791,4,4,4h4v4   c0,2.2109,1.791,4,4,4s4-1.7891,4-4v-4h4c2.209,0,4-1.7891,4-4S102.209,93.5,100,93.5z" fill="#FAE6F5"/><path d="M140,93.5h-4v-4c0-2.2109-1.791-4-4-4s-4,1.7891-4,4v4h-4c-2.209,0-4,1.7891-4,4s1.791,4,4,4h4v4   c0,2.2109,1.791,4,4,4s4-1.7891,4-4v-4h4c2.209,0,4-1.7891,4-4S142.209,93.5,140,93.5z" fill="#FAE6F5"/><path d="M180,93.5h-4v-4c0-2.2109-1.791-4-4-4s-4,1.7891-4,4v4h-4c-2.209,0-4,1.7891-4,4s1.791,4,4,4h4v4   c0,2.2109,1.791,4,4,4s4-1.7891,4-4v-4h4c2.209,0,4-1.7891,4-4S182.209,93.5,180,93.5z" fill="#FAE6F5"/><path d="M220,93.5h-4v-4c0-2.2109-1.791-4-4-4s-4,1.7891-4,4v4h-4c-2.209,0-4,1.7891-4,4s1.791,4,4,4h4v4   c0,2.2109,1.791,4,4,4s4-1.7891,4-4v-4h4c2.209,0,4-1.7891,4-4S222.209,93.5,220,93.5z" fill="#FAE6F5"/><path d="M20,133.5h-4v-4c0-2.2109-1.791-4-4-4s-4,1.7891-4,4v4H4c-2.209,0-4,1.7891-4,4s1.791,4,4,4h4v4   c0,2.2109,1.791,4,4,4s4-1.7891,4-4v-4h4c2.209,0,4-1.7891,4-4S22.209,133.5,20,133.5z" fill="#FAE6F5"/><path d="M60,133.5h-4v-4c0-2.2109-1.791-4-4-4s-4,1.7891-4,4v4h-4c-2.209,0-4,1.7891-4,4s1.791,4,4,4h4v4   c0,2.2109,1.791,4,4,4s4-1.7891,4-4v-4h4c2.209,0,4-1.7891,4-4S62.209,133.5,60,133.5z" fill="#FAE6F5"/><path d="M100,133.5h-4v-4c0-2.2109-1.791-4-4-4s-4,1.7891-4,4v4h-4c-2.209,0-4,1.7891-4,4s1.791,4,4,4h4v4   c0,2.2109,1.791,4,4,4s4-1.7891,4-4v-4h4c2.209,0,4-1.7891,4-4S102.209,133.5,100,133.5z" fill="#FAE6F5"/><path d="M140,133.5h-4v-4c0-2.2109-1.791-4-4-4s-4,1.7891-4,4v4h-4c-2.209,0-4,1.7891-4,4s1.791,4,4,4h4v4   c0,2.2109,1.791,4,4,4s4-1.7891,4-4v-4h4c2.209,0,4-1.7891,4-4S142.209,133.5,140,133.5z" fill="#FAE6F5"/><path d="M180,133.5h-4v-4c0-2.2109-1.791-4-4-4s-4,1.7891-4,4v4h-4c-2.209,0-4,1.7891-4,4s1.791,4,4,4h4v4   c0,2.2109,1.791,4,4,4s4-1.7891,4-4v-4h4c2.209,0,4-1.7891,4-4S182.209,133.5,180,133.5z" fill="#FAE6F5"/><path d="M220,133.5h-4v-4c0-2.2109-1.791-4-4-4s-4,1.7891-4,4v4h-4c-2.209,0-4,1.7891-4,4s1.791,4,4,4h4v4   c0,2.2109,1.791,4,4,4s4-1.7891,4-4v-4h4c2.209,0,4-1.7891,4-4S222.209,133.5,220,133.5z" fill="#FAE6F5"/><path d="M20,173.5h-4v-4c0-2.2109-1.791-4-4-4s-4,1.7891-4,4v4H4c-2.209,0-4,1.7891-4,4s1.791,4,4,4h4v4   c0,2.2109,1.791,4,4,4s4-1.7891,4-4v-4h4c2.209,0,4-1.7891,4-4S22.209,173.5,20,173.5z" fill="#FAE6F5"/><path d="M60,173.5h-4v-4c0-2.2109-1.791-4-4-4s-4,1.7891-4,4v4h-4c-2.209,0-4,1.7891-4,4s1.791,4,4,4h4v4   c0,2.2109,1.791,4,4,4s4-1.7891,4-4v-4h4c2.209,0,4-1.7891,4-4S62.209,173.5,60,173.5z" fill="#FAE6F5"/><path d="M100,173.5h-4v-4c0-2.2109-1.791-4-4-4s-4,1.7891-4,4v4h-4c-2.209,0-4,1.7891-4,4s1.791,4,4,4h4v4   c0,2.2109,1.791,4,4,4s4-1.7891,4-4v-4h4c2.209,0,4-1.7891,4-4S102.209,173.5,100,173.5z" fill="#FAE6F5"/><path d="M140,173.5h-4v-4c0-2.2109-1.791-4-4-4s-4,1.7891-4,4v4h-4c-2.209,0-4,1.7891-4,4s1.791,4,4,4h4v4   c0,2.2109,1.791,4,4,4s4-1.7891,4-4v-4h4c2.209,0,4-1.7891,4-4S142.209,173.5,140,173.5z" fill="#FAE6F5"/><path d="M180,173.5h-4v-4c0-2.2109-1.791-4-4-4s-4,1.7891-4,4v4h-4c-2.209,0-4,1.7891-4,4s1.791,4,4,4h4v4   c0,2.2109,1.791,4,4,4s4-1.7891,4-4v-4h4c2.209,0,4-1.7891,4-4S182.209,173.5,180,173.5z" fill="#FAE6F5"/><path d="M220,173.5h-4v-4c0-2.2109-1.791-4-4-4s-4,1.7891-4,4v4h-4c-2.209,0-4,1.7891-4,4s1.791,4,4,4h4v4   c0,2.2109,1.791,4,4,4s4-1.7891,4-4v-4h4c2.209,0,4-1.7891,4-4S222.209,173.5,220,173.5z" fill="#FAE6F5"/><path d="M20,213.5h-4v-4c0-2.2109-1.791-4-4-4s-4,1.7891-4,4v4H4c-2.209,0-4,1.7891-4,4s1.791,4,4,4h4v4   c0,2.2109,1.791,4,4,4s4-1.7891,4-4v-4h4c2.209,0,4-1.7891,4-4S22.209,213.5,20,213.5z" fill="#FAE6F5"/><path d="M60,213.5h-4v-4c0-2.2109-1.791-4-4-4s-4,1.7891-4,4v4h-4c-2.209,0-4,1.7891-4,4s1.791,4,4,4h4v4   c0,2.2109,1.791,4,4,4s4-1.7891,4-4v-4h4c2.209,0,4-1.7891,4-4S62.209,213.5,60,213.5z" fill="#FAE6F5"/><path d="M100,213.5h-4v-4c0-2.2109-1.791-4-4-4s-4,1.7891-4,4v4h-4c-2.209,0-4,1.7891-4,4s1.791,4,4,4h4v4   c0,2.2109,1.791,4,4,4s4-1.7891,4-4v-4h4c2.209,0,4-1.7891,4-4S102.209,213.5,100,213.5z" fill="#FAE6F5"/><path d="M140,213.5h-4v-4c0-2.2109-1.791-4-4-4s-4,1.7891-4,4v4h-4c-2.209,0-4,1.7891-4,4s1.791,4,4,4h4v4   c0,2.2109,1.791,4,4,4s4-1.7891,4-4v-4h4c2.209,0,4-1.7891,4-4S142.209,213.5,140,213.5z" fill="#FAE6F5"/><path d="M180,213.5h-4v-4c0-2.2109-1.791-4-4-4s-4,1.7891-4,4v4h-4c-2.209,0-4,1.7891-4,4s1.791,4,4,4h4v4   c0,2.2109,1.791,4,4,4s4-1.7891,4-4v-4h4c2.209,0,4-1.7891,4-4S182.209,213.5,180,213.5z" fill="#FAE6F5"/><path d="M220,213.5h-4v-4c0-2.2109-1.791-4-4-4s-4,1.7891-4,4v4h-4c-2.209,0-4,1.7891-4,4s1.791,4,4,4h4v4   c0,2.2109,1.791,4,4,4s4-1.7891,4-4v-4h4c2.209,0,4-1.7891,4-4S222.209,213.5,220,213.5z" fill="#FAE6F5"/></g><g><path d="M115.8241,0c-58.4492,0-106,47.5508-106,106c0,16.4336,3.6484,32.1602,10.8477,46.7656L4.1327,192.4609   c-0.5586,1.3398-0.3477,2.875,0.5488,4.0156c0.8965,1.1328,2.3164,1.7031,3.7754,1.4727l43.9199-7.0273   C70.7967,204.7188,92.6971,212,115.8241,212c58.4492,0,106-47.5508,106-106S174.2733,0,115.8241,0z" fill="#643458"/><path d="M115.8241,204c-21.9219,0-42.6484-7.0742-59.9375-20.4609c-0.707-0.5469-1.5684-0.8359-2.4492-0.8359   c-0.2109,0-0.4219,0.0156-0.6328,0.0508l-38.5293,6.1641l14.4883-34.7695c0.4531-1.0898,0.4023-2.3203-0.1367-3.3672   C21.4588,136.8438,17.8241,121.7773,17.8241,106c0-54.0391,43.9629-98,98-98s98,43.9609,98,98S169.8612,204,115.8241,204z" fill="#FDCA8D"/><path d="M123.8241,52h-50c-2.209,0-4,1.7891-4,4v104c0,2.2109,1.791,4,4,4h50c29.7754,0,54-24.2344,54-54.0195   v-3.9609C177.8241,76.2344,153.5995,52,123.8241,52z" fill="#643458"/><path d="M169.8241,109.9805c0,25.375-20.6348,46.0195-46,46.0195h-46V60h46c25.3652,0,46,20.6445,46,46.0195   V109.9805z" fill="#FFFFFF"/><path d="M117.8299,80h-12.0059c-2.209,0-4,1.7891-4,4v48c0,2.2109,1.791,4,4,4h12.0059   c15.4355,0,27.9941-12.5625,27.9941-28S133.2655,80,117.8299,80z" fill="#643458"/><path d="M117.8299,128h-8.0059V88h8.0059c11.0254,0,19.9941,8.9727,19.9941,20S128.8553,128,117.8299,128z" fill="#FDCA8D"/></g></svg>